:SAMPLES-PER-SECOND 24
:FULLY-SPECIFIED
:DEGREES
318
root  -1.99798 38.048 8.64204 9.64362 -40.9384 -5.40869
RightUpLeg  -9.97178 7.78089 -0.316749
RightLeg  27.985 -3.60014 -2.3067
RightFoot  -24.8487 -0.00767397 1.35741
RightToes  -2.08645e-008 3.77894e-005 6.81332e-007
Spine  10.311 0.183849 -4.22665
Spine1  2.95211 -2.15552 8.40591
HEad  -37.1003 28.3202 -11.3233
LeftShoulder1  9.45549 -14.9322 -44.7217
LeftArm  -6.88197 5.24491 -26.4156
LeftForeArm  62.0922 -78.4941 -60.1821
LeftHand  -1.01719 0.418769 23.6491
RightShoulder  4.33309 7.12213 34.8783
RightArm  4.53882 -10.8888 26.2911
RightForeArm  69.9153 78.6958 56.8645
RightHand  -0.519367 8.22114 -4.79502
LeftUpLeg  -32.4407 12.8712 14.3935
LeftLeg  18.5691 6.08697 2.59858
LeftFoot  18.3114 2.91082 -11.3978
LeftToes  1.24767e-006 1.47042e-008 1.32732e-009
319
root  -2.01212 38.853 8.40774 10.2921 -42.6946 -3.31934
RightUpLeg  -9.62522 11.873 -2.13881
RightLeg  20.9182 -5.92259 -2.76237
RightFoot  -20.1161 -0.0345335 1.33847
RightToes  -2.08645e-008 3.77894e-005 6.81332e-007
Spine  8.51784 -0.500442 -5.18971
Spine1  2.08725 -2.56326 7.58988
HEad  -32.7119 30.8734 -12.7484
LeftShoulder1  8.29793 -14.0174 -41.0682
LeftArm  -3.42662 3.89497 -32.2913
LeftForeArm  110.816 -80.0321 -101.449
LeftHand  -0.866489 0.0842035 18.9597
RightShoulder  4.25497 6.98384 34.6741
RightArm  5.55094 -20.0213 29.1411
RightForeArm  121.463 79.7026 111.082
RightHand  -0.36235 8.33248 -3.43859
LeftUpLeg  -31.2342 6.05645 15.6274
LeftLeg  17.1742 8.91105 3.42421
LeftFoot  20.6248 4.73921 -16.9099
LeftToes  1.24767e-006 1.47042e-008 1.32732e-009
320
root  -2.0598 39.6115 8.34727 11.3461 -46.62 -1.85065
RightUpLeg  -9.09736 8.90912 -3.47529
RightLeg  13.5037 0.778393 -2.50473
RightFoot  -15.5324 -0.0125678 2.65295
RightToes  -2.08645e-008 3.77894e-005 6.81332e-007
Spine  6.48012 0.425514 -6.29253
Spine1  1.11359 -1.44099 7.69979
HEad  -31.0741 33.3067 -14.3144
LeftShoulder1  6.84608 -12.6126 -36.4251
LeftArm  0.881731 5.14133 -38.4348
LeftForeArm  164.896 -73.1976 -147.21
LeftHand  -0.65051 -0.513032 12.8892
RightShoulder  4.13977 6.9465 33.7257
RightArm  8.98354 -29.2333 28.8716
RightForeArm  149.044 74.8039 141.127
RightHand  -0.382719 8.60897 -3.57354
LeftUpLeg  -30.172 7.96482 14.2599
LeftLeg  16.3972 3.50222 1.50444
LeftFoot  20.7055 5.70326 -20.1521
LeftToes  1.24767e-006 1.47042e-008 1.32732e-009
321
root  -2.02527 39.9758 8.24499 10.7626 -49.5335 -0.485352
RightUpLeg  -7.17592 -0.301434 -4.10373
RightLeg  7.04581 11.8386 -2.77323
RightFoot  -13.885 0.0226363 5.29111
RightToes  -2.08645e-008 3.77894e-005 6.81332e-007
Spine  7.30105 0.916773 -6.85823
Spine1  -0.624422 -0.764873 7.2658
HEad  -31.1458 35.2154 -15.3334
LeftShoulder1  6.01277 -11.6979 -33.5546
LeftArm  6.15191 4.87954 -39.2965
LeftForeArm  178.059 -63.2951 -161.159
LeftHand  -0.400244 -1.32873 7.06387
RightShoulder  4.07064 7.00124 32.8626
RightArm  13.8617 -35.3316 27.2088
RightForeArm  157.583 71.2914 149.713
RightHand  -0.186466 9.46852 -1.85303
LeftUpLeg  -28.233 8.36469 13.5926
LeftLeg  17.3968 2.632 1.23258
LeftFoot  19.6929 5.0889 -18.6394
LeftToes  1.24767e-006 1.47042e-008 1.32732e-009
322
root  -1.79434 39.8611 8.01528 9.93152 -51.2152 -0.580383
RightUpLeg  -7.74162 1.32397 -4.41365
RightLeg  8.59853 11.5001 -2.26098
RightFoot  -15.3612 0.134763 6.80404
RightToes  -2.08645e-008 3.77894e-005 6.81332e-007
Spine  9.82289 0.626601 -5.15753
Spine1  -1.24486 -0.580301 4.74487
HEad  -33.7647 35.8685 -17.1725
LeftShoulder1  5.54491 -11.2355 -31.622
LeftArm  9.6413 2.54066 -38.271
LeftForeArm  177.261 -56.0562 -165.739
LeftHand  -0.200115 -2.25159 3.23736
RightShoulder  3.97413 6.99844 31.95
RightArm  17.9219 -37.1413 26.4477
RightForeArm  160.72 69.5984 152.701
RightHand  -0.00522898 9.40516 -0.441043
LeftUpLeg  -26.442 5.76029 14.9917
LeftLeg  20.9364 8.98734 4.10512
LeftFoot  18.4871 3.64279 -14.0528
LeftToes  1.24767e-006 1.47042e-008 1.32732e-009
